<svg width="25" height="24" viewBox="0 0 25 24" fill="none" xmlns="http://www.w3.org/2000/svg">
<g clip-path="url(#clip0_319_743)">
<path d="M19.5 20.0003H5.5C4.17441 19.9987 2.90356 19.4714 1.96622 18.5341C1.02888 17.5967 0.501588 16.3259 0.5 15.0003L0.5 9.00031C0.501588 7.67471 1.02888 6.40386 1.96622 5.46653C2.90356 4.52919 4.17441 4.00189 5.5 4.00031H19.5C20.8256 4.00189 22.0964 4.52919 23.0338 5.46653C23.9711 6.40386 24.4984 7.67471 24.5 9.00031V15.0003C24.4984 16.3259 23.9711 17.5967 23.0338 18.5341C22.0964 19.4714 20.8256 19.9987 19.5 20.0003ZM5.5 6.00031C4.70435 6.00031 3.94129 6.31638 3.37868 6.87898C2.81607 7.44159 2.5 8.20466 2.5 9.00031V15.0003C2.5 15.796 2.81607 16.559 3.37868 17.1216C3.94129 17.6842 4.70435 18.0003 5.5 18.0003H19.5C20.2956 18.0003 21.0587 17.6842 21.6213 17.1216C22.1839 16.559 22.5 15.796 22.5 15.0003V9.00031C22.5 8.20466 22.1839 7.44159 21.6213 6.87898C21.0587 6.31638 20.2956 6.00031 19.5 6.00031H5.5ZM12.5 16.0003C11.7089 16.0003 10.9355 15.7657 10.2777 15.3262C9.61992 14.8867 9.10723 14.2619 8.80448 13.531C8.50173 12.8001 8.42252 11.9959 8.57686 11.2199C8.7312 10.444 9.11216 9.73129 9.67157 9.17188C10.231 8.61247 10.9437 8.2315 11.7196 8.07716C12.4956 7.92282 13.2998 8.00204 14.0307 8.30479C14.7616 8.60754 15.3864 9.12023 15.8259 9.77802C16.2654 10.4358 16.5 11.2092 16.5 12.0003C16.5 13.0612 16.0786 14.0786 15.3284 14.8287C14.5783 15.5789 13.5609 16.0003 12.5 16.0003ZM12.5 10.0003C12.1044 10.0003 11.7178 10.1176 11.3889 10.3374C11.06 10.5571 10.8036 10.8695 10.6522 11.2349C10.5009 11.6004 10.4613 12.0025 10.5384 12.3905C10.6156 12.7784 10.8061 13.1348 11.0858 13.4145C11.3655 13.6942 11.7219 13.8847 12.1098 13.9619C12.4978 14.039 12.8999 13.9994 13.2654 13.8481C13.6308 13.6967 13.9432 13.4403 14.1629 13.1114C14.3827 12.7825 14.5 12.3959 14.5 12.0003C14.5 11.4699 14.2893 10.9612 13.9142 10.5861C13.5391 10.211 13.0304 10.0003 12.5 10.0003ZM5.5 8.00031C5.30222 8.00031 5.10888 8.05895 4.94443 8.16884C4.77998 8.27872 4.65181 8.4349 4.57612 8.61762C4.50043 8.80035 4.48063 9.00141 4.51921 9.1954C4.5578 9.38938 4.65304 9.56756 4.79289 9.70741C4.93275 9.84726 5.11093 9.94251 5.30491 9.98109C5.49889 10.0197 5.69996 9.99987 5.88268 9.92418C6.06541 9.8485 6.22159 9.72032 6.33147 9.55588C6.44135 9.39143 6.5 9.19809 6.5 9.00031C6.5 8.73509 6.39464 8.48073 6.20711 8.2932C6.01957 8.10566 5.76522 8.00031 5.5 8.00031ZM18.5 9.00031C18.5 9.19809 18.5586 9.39143 18.6685 9.55588C18.7784 9.72032 18.9346 9.8485 19.1173 9.92418C19.3 9.99987 19.5011 10.0197 19.6951 9.98109C19.8891 9.94251 20.0673 9.84726 20.2071 9.70741C20.347 9.56756 20.4422 9.38938 20.4808 9.1954C20.5194 9.00141 20.4996 8.80035 20.4239 8.61762C20.3482 8.4349 20.22 8.27872 20.0556 8.16884C19.8911 8.05895 19.6978 8.00031 19.5 8.00031C19.2348 8.00031 18.9804 8.10566 18.7929 8.2932C18.6054 8.48073 18.5 8.73509 18.5 9.00031ZM5.5 14.0003C5.30222 14.0003 5.10888 14.059 4.94443 14.1688C4.77998 14.2787 4.65181 14.4349 4.57612 14.6176C4.50043 14.8003 4.48063 15.0014 4.51921 15.1954C4.5578 15.3894 4.65304 15.5676 4.79289 15.7074C4.93275 15.8473 5.11093 15.9425 5.30491 15.9811C5.49889 16.0197 5.69996 15.9999 5.88268 15.9242C6.06541 15.8485 6.22159 15.7203 6.33147 15.5559C6.44135 15.3914 6.5 15.1981 6.5 15.0003C6.5 14.7351 6.39464 14.4807 6.20711 14.2932C6.01957 14.1057 5.76522 14.0003 5.5 14.0003ZM18.5 15.0003C18.5 15.1981 18.5586 15.3914 18.6685 15.5559C18.7784 15.7203 18.9346 15.8485 19.1173 15.9242C19.3 15.9999 19.5011 16.0197 19.6951 15.9811C19.8891 15.9425 20.0673 15.8473 20.2071 15.7074C20.347 15.5676 20.4422 15.3894 20.4808 15.1954C20.5194 15.0014 20.4996 14.8003 20.4239 14.6176C20.3482 14.4349 20.22 14.2787 20.0556 14.1688C19.8911 14.059 19.6978 14.0003 19.5 14.0003C19.2348 14.0003 18.9804 14.1057 18.7929 14.2932C18.6054 14.4807 18.5 14.7351 18.5 15.0003Z" fill="white"/>
</g>
<defs>
<clipPath id="clip0_319_743">
<rect width="24" height="24" fill="white" transform="translate(0.5)"/>
</clipPath>
</defs>
</svg>
