<svg width="25" height="24" viewBox="0 0 25 24" fill="none" xmlns="http://www.w3.org/2000/svg">
<g clip-path="url(#clip0_319_753)">
<path d="M15.5001 0H9.50012C8.17453 0.00158786 6.90368 0.528882 5.96634 1.46622C5.029 2.40356 4.50171 3.67441 4.50012 5V19C4.50171 20.3256 5.029 21.5964 5.96634 22.5338C6.90368 23.4711 8.17453 23.9984 9.50012 24H15.5001C16.8257 23.9984 18.0966 23.4711 19.0339 22.5338C19.9712 21.5964 20.4985 20.3256 20.5001 19V5C20.4985 3.67441 19.9712 2.40356 19.0339 1.46622C18.0966 0.528882 16.8257 0.00158786 15.5001 0V0ZM9.50012 2H15.5001C16.2958 2 17.0588 2.31607 17.6214 2.87868C18.1841 3.44129 18.5001 4.20435 18.5001 5V16H6.50012V5C6.50012 4.20435 6.81619 3.44129 7.3788 2.87868C7.94141 2.31607 8.70447 2 9.50012 2ZM15.5001 22H9.50012C8.70447 22 7.94141 21.6839 7.3788 21.1213C6.81619 20.5587 6.50012 19.7956 6.50012 19V18H18.5001V19C18.5001 19.7956 18.1841 20.5587 17.6214 21.1213C17.0588 21.6839 16.2958 22 15.5001 22Z" fill="white"/>
<path d="M12.5001 20.9994C13.0524 20.9994 13.5001 20.5517 13.5001 19.9994C13.5001 19.4471 13.0524 18.9994 12.5001 18.9994C11.9478 18.9994 11.5001 19.4471 11.5001 19.9994C11.5001 20.5517 11.9478 20.9994 12.5001 20.9994Z" fill="white"/>
</g>
<defs>
<clipPath id="clip0_319_753">
<rect width="24" height="24" fill="white" transform="translate(0.5)"/>
</clipPath>
</defs>
</svg>
