<svg width="25" height="24" viewBox="0 0 25 24" fill="none" xmlns="http://www.w3.org/2000/svg">
<g clip-path="url(#clip0_319_747)">
<path d="M15.591 16C22.161 15.964 24.5 12.484 24.5 9.50003C24.4994 8.70008 24.2247 7.92448 23.7218 7.30239C23.2189 6.68029 22.5181 6.24925 21.736 6.08103C21.872 5.69403 21.99 5.33903 22.069 5.07003C22.2436 4.48498 22.2779 3.86703 22.1691 3.26625C22.0603 2.66547 21.8116 2.09876 21.443 1.61203C21.0714 1.10992 20.5868 0.70234 20.0285 0.42229C19.4701 0.142241 18.8537 -0.00241523 18.229 3.05041e-05H6.771C6.14635 -0.00241523 5.52989 0.142241 4.97153 0.42229C4.41317 0.70234 3.92859 1.10992 3.557 1.61203C3.18841 2.09876 2.93966 2.66547 2.8309 3.26625C2.72214 3.86703 2.75643 4.48498 2.931 5.07003C3.01 5.33903 3.131 5.69403 3.264 6.08103C2.48193 6.24925 1.78109 6.68029 1.27818 7.30239C0.775263 7.92448 0.500626 8.70008 0.5 9.50003C0.5 12.484 2.839 15.964 9.409 16C9.4674 16.3036 9.49786 16.6119 9.5 16.921V20C9.51718 20.2671 9.47723 20.5348 9.38279 20.7853C9.28836 21.0357 9.14162 21.2631 8.95237 21.4524C8.76311 21.6417 8.53568 21.7884 8.28524 21.8828C8.03479 21.9773 7.7671 22.0172 7.5 22H6.5C6.23478 22 5.98043 22.1054 5.79289 22.2929C5.60536 22.4805 5.5 22.7348 5.5 23C5.5 23.2652 5.60536 23.5196 5.79289 23.7071C5.98043 23.8947 6.23478 24 6.5 24H18.5C18.7652 24 19.0196 23.8947 19.2071 23.7071C19.3946 23.5196 19.5 23.2652 19.5 23C19.5 22.7348 19.3946 22.4805 19.2071 22.2929C19.0196 22.1054 18.7652 22 18.5 22H17.508C17.2403 22.0181 16.9719 21.9788 16.7206 21.8848C16.4694 21.7907 16.2411 21.6442 16.051 21.4549C15.8609 21.2655 15.7134 21.0378 15.6184 20.7869C15.5234 20.536 15.483 20.2678 15.5 20V16.92C15.5022 16.6112 15.5326 16.3033 15.591 16ZM21 8.00003C21.3978 8.00003 21.7794 8.15807 22.0607 8.43937C22.342 8.72067 22.5 9.10221 22.5 9.50003C22.5 11.534 20.891 13.7 16.464 13.97C16.6854 13.6678 16.9411 13.3923 17.226 13.149C18.82 11.713 20.0904 9.95446 20.953 7.99003C20.969 7.99103 20.983 8.00003 21 8.00003ZM2.5 9.50003C2.5 9.10221 2.65804 8.72067 2.93934 8.43937C3.22064 8.15807 3.60218 8.00003 4 8.00003C4.017 8.00003 4.031 7.99103 4.047 7.99003C4.90956 9.95446 6.17999 11.713 7.774 13.149C8.05887 13.3923 8.31458 13.6678 8.536 13.97C4.109 13.7 2.5 11.534 2.5 9.50003ZM11.013 22C11.3436 21.3859 11.5113 20.6974 11.5 20V16.921C11.5035 15.9149 11.2878 14.92 10.868 14.0056C10.4482 13.0912 9.8343 12.2792 9.069 11.626C7.03553 9.68258 5.57564 7.21738 4.849 4.50003C4.76361 4.21321 4.74718 3.91027 4.80105 3.61589C4.85493 3.32152 4.97757 3.04403 5.159 2.80603C5.34554 2.55455 5.58869 2.35054 5.86874 2.21052C6.1488 2.07049 6.45789 1.99838 6.771 2.00003H18.229C18.5424 1.99884 18.8518 2.07157 19.1318 2.2123C19.4119 2.35304 19.6549 2.55782 19.841 2.81003C20.0224 3.04803 20.1451 3.32552 20.1989 3.61989C20.2528 3.91427 20.2364 4.21721 20.151 4.50403C19.4237 7.21994 17.9638 9.68369 15.931 11.626C15.1657 12.279 14.5518 13.0909 14.132 14.0051C13.7122 14.9193 13.4965 15.914 13.5 16.92V20C13.4887 20.6974 13.6564 21.3859 13.987 22H11.013Z" fill="white"/>
</g>
<defs>
<clipPath id="clip0_319_747">
<rect width="24" height="24" fill="white" transform="translate(0.5)"/>
</clipPath>
</defs>
</svg>
