<svg width="25" height="24" viewBox="0 0 25 24" fill="none" xmlns="http://www.w3.org/2000/svg">
<g clip-path="url(#clip0_319_745)">
<path d="M12.5 24C10.1266 24 7.80655 23.2962 5.83316 21.9776C3.85977 20.6591 2.3217 18.7849 1.41345 16.5922C0.505199 14.3995 0.267559 11.9867 0.730582 9.65892C1.1936 7.33115 2.33649 5.19295 4.01472 3.51472C5.69295 1.83649 7.83115 0.693605 10.1589 0.230582C12.4867 -0.232441 14.8995 0.00519943 17.0922 0.913451C19.2849 1.8217 21.1591 3.35977 22.4776 5.33316C23.7962 7.30655 24.5 9.62663 24.5 12C24.4966 15.1815 23.2312 18.2318 20.9815 20.4815C18.7318 22.7312 15.6815 23.9966 12.5 24ZM12.5 2.00001C10.5222 2.00001 8.58879 2.5865 6.9443 3.68531C5.29981 4.78412 4.01809 6.34591 3.26121 8.17317C2.50433 10.0004 2.3063 12.0111 2.69215 13.9509C3.078 15.8907 4.03041 17.6725 5.42894 19.0711C6.82746 20.4696 8.60929 21.422 10.5491 21.8079C12.4889 22.1937 14.4996 21.9957 16.3268 21.2388C18.1541 20.4819 19.7159 19.2002 20.8147 17.5557C21.9135 15.9112 22.5 13.9778 22.5 12C22.4971 9.34873 21.4426 6.80689 19.5679 4.93215C17.6931 3.05742 15.1513 2.00292 12.5 2.00001ZM12.5 20C10.9178 20 9.37104 19.5308 8.05544 18.6518C6.73985 17.7727 5.71447 16.5233 5.10897 15.0615C4.50347 13.5997 4.34504 11.9911 4.65372 10.4393C4.96241 8.88743 5.72433 7.46197 6.84315 6.34315C7.96197 5.22433 9.38743 4.46241 10.9393 4.15372C12.4911 3.84504 14.0997 4.00347 15.5615 4.60897C17.0233 5.21447 18.2727 6.23985 19.1518 7.55544C20.0308 8.87104 20.5 10.4178 20.5 12C20.4976 14.121 19.654 16.1545 18.1542 17.6542C16.6545 19.154 14.621 19.9976 12.5 20ZM12.5 6.00001C11.3133 6.00001 10.1533 6.3519 9.16658 7.01119C8.17989 7.67048 7.41085 8.60755 6.95673 9.70391C6.5026 10.8003 6.38378 12.0067 6.61529 13.1705C6.8468 14.3344 7.41825 15.4035 8.25736 16.2426C9.09648 17.0818 10.1656 17.6532 11.3295 17.8847C12.4934 18.1162 13.6997 17.9974 14.7961 17.5433C15.8925 17.0892 16.8295 16.3201 17.4888 15.3334C18.1481 14.3467 18.5 13.1867 18.5 12C18.4984 10.4092 17.8658 8.88399 16.7409 7.75912C15.616 6.63424 14.0908 6.00159 12.5 6.00001ZM12.357 15.515L15.357 10.515C15.4482 10.3633 15.4974 10.1901 15.4997 10.0131C15.502 9.83613 15.4574 9.6617 15.3702 9.50765C15.2831 9.35359 15.1566 9.22542 15.0037 9.13624C14.8508 9.04705 14.677 9.00004 14.5 9.00001H10.5C10.2348 9.00001 9.98044 9.10536 9.7929 9.2929C9.60536 9.48044 9.50001 9.73479 9.50001 10C9.50001 10.2652 9.60536 10.5196 9.7929 10.7071C9.98044 10.8946 10.2348 11 10.5 11H12.734L10.643 14.485C10.5725 14.5976 10.5252 14.7231 10.5038 14.8542C10.4824 14.9853 10.4873 15.1194 10.5183 15.2486C10.5492 15.3778 10.6056 15.4995 10.6841 15.6066C10.7627 15.7138 10.8618 15.8042 10.9756 15.8726C11.0895 15.941 11.2158 15.9861 11.3473 16.0051C11.4788 16.0242 11.6127 16.0169 11.7413 15.9836C11.8699 15.9503 11.9906 15.8917 12.0963 15.8112C12.202 15.7308 12.2906 15.6301 12.357 15.515Z" fill="white"/>
</g>
<defs>
<clipPath id="clip0_319_745">
<rect width="24" height="24" fill="white" transform="translate(0.5)"/>
</clipPath>
</defs>
</svg>
