<svg width="25" height="24" viewBox="0 0 25 24" fill="none" xmlns="http://www.w3.org/2000/svg">
<g clip-path="url(#clip0_319_749)">
<path d="M18 1.9165C16.8739 1.93402 15.7724 2.24836 14.8067 2.82778C13.841 3.40719 13.0453 4.23117 12.5 5.2165C11.9546 4.23117 11.1589 3.40719 10.1932 2.82778C9.2275 2.24836 8.12601 1.93402 6.99996 1.9165C5.2049 1.99449 3.51366 2.77976 2.29574 4.10074C1.07782 5.42171 0.432208 7.17103 0.499958 8.9665C0.499958 13.5135 5.28596 18.4795 9.29996 21.8465C10.1962 22.5996 11.3293 23.0125 12.5 23.0125C13.6706 23.0125 14.8037 22.5996 15.7 21.8465C19.714 18.4795 24.5 13.5135 24.5 8.9665C24.5677 7.17103 23.9221 5.42171 22.7042 4.10074C21.4863 2.77976 19.795 1.99449 18 1.9165ZM14.415 20.3165C13.8789 20.7679 13.2007 21.0154 12.5 21.0154C11.7992 21.0154 11.121 20.7679 10.585 20.3165C5.44696 16.0055 2.49996 11.8695 2.49996 8.9665C2.4316 7.70122 2.86632 6.46023 3.70932 5.5142C4.55232 4.56817 5.73519 3.99385 6.99996 3.9165C8.26472 3.99385 9.4476 4.56817 10.2906 5.5142C11.1336 6.46023 11.5683 7.70122 11.5 8.9665C11.5 9.23172 11.6053 9.48607 11.7929 9.67361C11.9804 9.86115 12.2347 9.9665 12.5 9.9665C12.7652 9.9665 13.0195 9.86115 13.2071 9.67361C13.3946 9.48607 13.5 9.23172 13.5 8.9665C13.4316 7.70122 13.8663 6.46023 14.7093 5.5142C15.5523 4.56817 16.7352 3.99385 18 3.9165C19.2647 3.99385 20.4476 4.56817 21.2906 5.5142C22.1336 6.46023 22.5683 7.70122 22.5 8.9665C22.5 11.8695 19.553 16.0055 14.415 20.3125V20.3165Z" fill="white"/>
</g>
<defs>
<clipPath id="clip0_319_749">
<rect width="24" height="24" fill="white" transform="translate(0.5)"/>
</clipPath>
</defs>
</svg>
