<svg width="25" height="24" viewBox="0 0 25 24" fill="none" xmlns="http://www.w3.org/2000/svg">
<g clip-path="url(#clip0_319_741)">
<path d="M14.4321 4C15.2456 4.00079 16.0255 4.32428 16.6006 4.89947C17.1758 5.47466 17.4993 6.25456 17.5001 7.068C17.5001 7.33322 17.6055 7.58757 17.793 7.77511C17.9806 7.96264 18.2349 8.068 18.5001 8.068C18.7653 8.068 19.0197 7.96264 19.2072 7.77511C19.3948 7.58757 19.5001 7.33322 19.5001 7.068V7C19.5001 6.981 19.5001 6.964 19.5001 6.945C19.4667 5.62273 18.9183 4.36578 17.9716 3.44206C17.0249 2.51833 15.7548 2.00088 14.4321 2H13.5001V1C13.5001 0.734784 13.3948 0.48043 13.2072 0.292893C13.0197 0.105357 12.7653 0 12.5001 0C12.2349 0 11.9806 0.105357 11.793 0.292893C11.6055 0.48043 11.5001 0.734784 11.5001 1V2H10.5681C9.36544 2.00128 8.20241 2.43023 7.28692 3.21018C6.37142 3.99012 5.76313 5.07022 5.57078 6.25742C5.37842 7.44462 5.61453 8.66154 6.23691 9.69066C6.8593 10.7198 7.82738 11.494 8.96812 11.875L11.5001 12.72V20H10.5681C9.75468 19.9992 8.97479 19.6757 8.3996 19.1005C7.82441 18.5253 7.50092 17.7454 7.50012 16.932C7.50012 16.6668 7.39477 16.4124 7.20723 16.2249C7.01969 16.0374 6.76534 15.932 6.50012 15.932C6.23491 15.932 5.98055 16.0374 5.79302 16.2249C5.60548 16.4124 5.50012 16.6668 5.50012 16.932V17C5.50012 17.019 5.50012 17.036 5.50012 17.055C5.5335 18.3773 6.08198 19.6342 7.02869 20.5579C7.97539 21.4817 9.24543 21.9991 10.5681 22H11.5001V23C11.5001 23.2652 11.6055 23.5196 11.793 23.7071C11.9806 23.8946 12.2349 24 12.5001 24C12.7653 24 13.0197 23.8946 13.2072 23.7071C13.3948 23.5196 13.5001 23.2652 13.5001 23V22H14.4321C15.6348 21.9987 16.7978 21.5698 17.7133 20.7898C18.6288 20.0099 19.2371 18.9298 19.4295 17.7426C19.6218 16.5554 19.3857 15.3385 18.7633 14.3093C18.1409 13.2802 17.1729 12.506 16.0321 12.125L13.5001 11.28V4H14.4321ZM15.4021 14.021C16.0935 14.2511 16.6805 14.7198 17.0578 15.3432C17.4352 15.9666 17.5784 16.704 17.4617 17.4233C17.345 18.1426 16.976 18.7969 16.4209 19.269C15.8659 19.7411 15.1608 20.0003 14.4321 20H13.5001V13.387L15.4021 14.021ZM11.5001 10.613L9.60012 9.979C8.90886 9.74893 8.32203 9.28037 7.94466 8.65718C7.56728 8.034 7.42399 7.29685 7.54042 6.57768C7.65686 5.8585 8.02542 5.20422 8.58015 4.73194C9.13489 4.25966 9.83958 4.00021 10.5681 4H11.5001V10.613Z" fill="white"/>
</g>
<defs>
<clipPath id="clip0_319_741">
<rect width="24" height="24" fill="white" transform="translate(0.5)"/>
</clipPath>
</defs>
</svg>
