<svg width="25" height="24" viewBox="0 0 25 24" fill="none" xmlns="http://www.w3.org/2000/svg">
<path fill-rule="evenodd" clip-rule="evenodd" d="M12.9832 1.62611L15.2801 8.74174C15.349 8.95502 15.5398 9.09377 15.7643 9.0933L23.2414 9.07877C23.7331 9.07783 23.9384 9.70971 23.5399 9.99752L17.4823 14.3808C17.3004 14.5125 17.2278 14.7366 17.2976 14.9499L19.6217 22.0566C19.774 22.5221 19.2359 22.913 18.8403 22.6247L12.7995 18.218C12.6181 18.0858 12.3823 18.0858 12.2014 18.218L6.16057 22.6247C5.76495 22.9135 5.22682 22.5225 5.37917 22.0566L7.70323 14.9499C7.77307 14.7366 7.69995 14.5125 7.51854 14.3808L1.46042 9.99752C1.06198 9.70924 1.26729 9.07783 1.75901 9.07877L9.23604 9.0933C9.46057 9.09377 9.65135 8.95502 9.72026 8.74174L12.0171 1.62611C12.1681 1.15783 12.8318 1.15783 12.9832 1.62611Z" fill="#24636A"/>
</svg>
