<svg width="20" height="20" viewBox="0 0 20 20" fill="none" xmlns="http://www.w3.org/2000/svg">
<path d="M0 16C0 18.2091 1.79086 20 4 20H16C18.2091 20 20 18.2091 20 16V4C20 1.79086 18.2091 0 16 0H4C1.79086 0 0 1.79086 0 4V16Z" fill="#0C4E54"/>
<g clip-path="url(#clip0_313_249)">
<path d="M9.74589 12.8813L5.11728 8.25858C4.96091 8.10026 4.96091 7.91029 5.11728 7.75198L5.71149 7.11873C5.86787 6.96042 6.11806 6.96042 6.24316 7.11873L9.99609 10.8549L13.749 7.11873C13.8741 6.96042 14.1243 6.96042 14.2807 7.11873L14.9062 7.75198C15.0313 7.91029 15.0313 8.0686 14.9062 8.25858L10.3088 12.8813C10.1525 13.0396 9.90227 13.0396 9.77717 12.8813H9.74589Z" fill="white"/>
</g>
<defs>
<clipPath id="clip0_313_249">
<rect width="10" height="6" fill="white" transform="translate(5 7)"/>
</clipPath>
</defs>
</svg>
