<svg width="20" height="20" viewBox="0 0 20 20" fill="none" xmlns="http://www.w3.org/2000/svg">
<rect x="0.5" y="0.5" width="19" height="19" rx="3.5" stroke="white"/>
<g clip-path="url(#clip0_313_253)">
<path d="M9.74589 7.11873L5.11728 11.7414C4.96091 11.8997 4.96091 12.0897 5.11728 12.248L5.71149 12.8813C5.86787 13.0396 6.11806 13.0396 6.24316 12.8813L9.99609 9.14512L13.749 12.8813C13.8741 13.0396 14.1243 13.0396 14.2807 12.8813L14.9062 12.248C15.0313 12.0897 15.0313 11.9314 14.9062 11.7414L10.3088 7.11873C10.1525 6.96042 9.90227 6.96042 9.77717 7.11873H9.74589Z" fill="white"/>
</g>
<defs>
<clipPath id="clip0_313_253">
<rect width="10" height="6" fill="white" transform="matrix(1 0 0 -1 5 13)"/>
</clipPath>
</defs>
</svg>
