<svg width="24" height="24" viewBox="0 0 24 24" fill="none" xmlns="http://www.w3.org/2000/svg">
<g clip-path="url(#clip0_319_782)">
<path d="M23.1469 9.471L22.3599 8.4C21.8146 7.65793 21.1027 7.0542 20.2815 6.63736C19.4603 6.22052 18.5528 6.00222 17.6319 6H6.38291C5.48093 6.00236 4.59153 6.21176 3.78326 6.61209C2.97498 7.01241 2.26941 7.59296 1.72091 8.309L0.899905 9.383C0.233387 10.2623 -0.0799862 11.3592 0.0214262 12.4579C0.122839 13.5566 0.631696 14.5776 1.44791 15.32L9.43791 23.027C10.1397 23.6528 11.0476 23.9979 11.9879 23.996C12.9481 23.9941 13.8739 23.638 14.5879 22.996L22.5239 15.363C23.3448 14.6361 23.864 13.6283 23.9793 12.5379C24.0945 11.4476 23.7976 10.3535 23.1469 9.471ZM20.7469 9.578L21.5339 10.652C21.613 10.7619 21.6826 10.8783 21.7419 11H16.9509C16.8785 10.5211 16.7538 10.0516 16.5789 9.6L15.9389 8H17.6319C18.2384 8.00115 18.8361 8.1445 19.3771 8.41856C19.9181 8.69261 20.3872 9.08973 20.7469 9.578ZM11.9899 20.088L9.22091 13.818C9.12075 13.5528 9.0451 13.279 8.99491 13H14.9469C14.905 13.2199 14.8461 13.4362 14.7709 13.647L11.9899 20.088ZM9.09991 11C9.14173 10.8207 9.19415 10.6441 9.25691 10.471L10.2409 8H13.7849L14.7219 10.343C14.8042 10.5569 14.871 10.7765 14.9219 11H9.09991ZM3.31091 9.521C3.67247 9.04935 4.13744 8.66695 4.67003 8.40326C5.20262 8.13957 5.78861 8.00161 6.38291 8H8.08291L7.39991 9.729C7.23512 10.1392 7.11216 10.5651 7.03291 11H2.24491C2.31349 10.8587 2.39625 10.7246 2.49191 10.6L3.31091 9.521ZM2.81091 13.854C2.55003 13.6174 2.34508 13.3257 2.21091 13H6.98291C7.04923 13.5388 7.17913 14.0678 7.36991 14.576L10.1969 20.976L2.81091 13.854ZM13.7709 21.014L16.6249 14.4C16.7906 13.9474 16.9059 13.4779 16.9689 13H21.7999C21.6584 13.3433 21.4421 13.6507 21.1669 13.9L13.7709 21.014Z" fill="white"/>
<path d="M11.9999 3.99999C12.2652 3.99999 12.5195 3.89464 12.7071 3.7071C12.8946 3.51956 13 3.26521 13 2.99999V0.999992C13 0.734776 12.8946 0.480422 12.7071 0.292886C12.5195 0.105349 12.2652 -7.62939e-06 11.9999 -7.62939e-06C11.7347 -7.62939e-06 11.4804 0.105349 11.2928 0.292886C11.1053 0.480422 10.9999 0.734776 10.9999 0.999992V2.99999C10.9999 3.26521 11.1053 3.51956 11.2928 3.7071C11.4804 3.89464 11.7347 3.99999 11.9999 3.99999Z" fill="white"/>
<path d="M16.5529 3.89987C16.671 3.95924 16.7996 3.99461 16.9314 4.00395C17.0633 4.01329 17.1956 3.99641 17.3209 3.95428C17.4461 3.91216 17.5618 3.84563 17.6612 3.75854C17.7606 3.67144 17.8417 3.56551 17.8999 3.44687L18.8999 1.44687C19.0185 1.20951 19.0379 0.934764 18.9538 0.683091C18.8698 0.431417 18.6893 0.223426 18.4519 0.104874C18.2145 -0.0136774 17.9398 -0.0330792 17.6881 0.0509371C17.4364 0.134953 17.2285 0.315506 17.1099 0.552874L16.1099 2.55287C16.0502 2.67034 16.0143 2.79844 16.0042 2.92983C15.9942 3.06122 16.0102 3.19329 16.0514 3.31847C16.0925 3.44364 16.158 3.55945 16.2441 3.65922C16.3302 3.759 16.4351 3.84079 16.5529 3.89987Z" fill="white"/>
<path d="M6.10503 3.44687C6.22358 3.68491 6.43183 3.86609 6.68397 3.95058C6.93612 4.03506 7.21149 4.01593 7.44953 3.89737C7.68756 3.77882 7.86875 3.57057 7.95323 3.31843C8.03772 3.06628 8.01858 2.79091 7.90003 2.55287L6.90003 0.552874C6.84133 0.435341 6.76005 0.330521 6.66084 0.244399C6.56163 0.158276 6.44643 0.0925377 6.32181 0.0509371C6.07014 -0.0330792 5.79539 -0.0136774 5.55803 0.104874C5.32066 0.223426 5.1401 0.431417 5.05609 0.683091C4.97207 0.934764 4.99147 1.20951 5.11003 1.44687L6.10503 3.44687Z" fill="white"/>
</g>
<defs>
<clipPath id="clip0_319_782">
<rect width="24" height="24" fill="white"/>
</clipPath>
</defs>
</svg>
